<?xml version="1.0" ?><svg fill = "#C0C0C0" height="32px" version="1.1" viewBox="0 0 16 22" width="32px" xmlns="http://www.w3.org/2000/svg" xmlns:sketch="http://www.bohemiancoding.com/sketch/ns" xmlns:xlink="http://www.w3.org/1999/xlink"><title/><desc/><defs/><g id="Page-1" stroke="none" stroke-width="1"><g id="Icons-AV" transform="translate(-212.000000, 0.000000)"><g id="loop" transform="translate(212.000000, 0.000000)"><path d="M8,3 L8,0 L4,4 L8,8 L8,5 C11.3,5 14,7.7 14,11 C14,12 13.7,13 13.3,13.8 L14.8,15.3 C15.5,14 16,12.6 16,11 C16,6.6 12.4,3 8,3 L8,3 Z M8,17 C4.7,17 2,14.3 2,11 C2,10 2.3,9 2.7,8.2 L1.2,6.7 C0.5,8 0,9.4 0,11 C0,15.4 3.6,19 8,19 L8,22 L12,18 L8,14 L8,17 L8,17 Z" id="Shape"/></g></g></g></svg>