#Wavefront OBJ file created by Hexagon 2 
mtllib emerald.mtl
g emerald__0
# 64 
v 0.192688 0.302181 -0.071101 
v -0.189819 0.302181 -0.071101 
v 0.215195 0.302181 -0.057455 
v -0.214409 0.302181 -0.057325 
v 0.215195 0.302181 0.055666 
v -0.214409 0.302181 0.055797 
v -0.18604 0.302181 0.070437 
v 0.189785 0.302181 0.070437 
v -0.227017 0.285533 -0.100316 
v -0.2564 0.285533 -0.080834 
v -0.2564 0.285533 0.079154 
v -0.222501 0.285533 0.099861 
v 0.226577 0.285533 0.099861 
v 0.25694 0.285533 0.078969 
v 0.25694 0.285533 -0.081018 
v 0.230046 0.285533 -0.100316 
v -0.091046 0 -0.00383 
v 0.093489 0 -0.00383 
v 0.104348 0 -0.003201 
v -0.102909 0 -0.003195 
v 0.104348 0 0.002012 
v -0.102909 0 0.002017 
v -0.089223 0 0.002693 
v 0.092089 0 0.002693 
v -0.213602 0.063013 -0.059123 
v -0.189104 0.063013 -0.073335 
v -0.213602 0.063013 0.057582 
v -0.185339 0.063013 0.072687 
v 0.189078 0.063013 0.072687 
v 0.214393 0.063013 0.057448 
v 0.214393 0.063013 -0.059257 
v 0.19197 0.063013 -0.073335 
v -0.268927 0.25595 -0.131182 
v -0.30371 0.25595 -0.105672 
v -0.30371 0.25595 0.10383 
v -0.263581 0.25595 0.130946 
v 0.26803 0.25595 0.130946 
v 0.303974 0.25595 0.103588 
v 0.303974 0.25595 -0.105913 
v 0.272137 0.25595 -0.131182 
v 0.34875 0.211995 -0.133083 
v 0.312208 0.211995 -0.164871 
v 0.34875 0.211995 0.130457 
v 0.307494 0.211995 0.164871 
v -0.30269 0.211995 0.164871 
v -0.34875 0.211995 0.130761 
v -0.34875 0.211995 -0.132778 
v -0.308825 0.211995 -0.164871 
v 0.34875 0.204744 -0.133083 
v 0.312208 0.204744 -0.164871 
v 0.34875 0.204744 0.130457 
v 0.307494 0.204744 0.164871 
v -0.30269 0.204744 0.164871 
v -0.34875 0.204744 0.130761 
v -0.34875 0.204744 -0.132778 
v -0.308825 0.204744 -0.164871 
v 0.274814 0.118172 -0.090591 
v 0.246041 0.118172 -0.112186 
v 0.274814 0.118172 0.088436 
v 0.24233 0.118172 0.111814 
v -0.238112 0.118172 0.111814 
v -0.274378 0.118172 0.088643 
v -0.274378 0.118172 -0.090385 
v -0.242943 0.118172 -0.112186 
# 248 1 
vt 0 1 
vt 0 1 
vt 0 1 
vt 0 1 
vt 0 1 
vt 0 1 
vt 0 1 
vt 0 1 
vt 0 1 
vt 0 1 
vt 0 1 
vt 0 1 
vt 0 1 
vt 0 1 
vt 0 1 
vt 0 1 
vt 0 1 
vt 0 1 
vt 0 1 
vt 0 1 
vt 0 1 
vt 0 1 
vt 0 1 
vt 0 1 
vt 0 1 
vt 0 1 
vt 0 1 
vt 0 1 
vt 0 1 
vt 0 1 
vt 0 1 
vt 0 1 
vt 0 1 
vt 0 1 
vt 0 1 
vt 0 1 
vt 0 1 
vt 0 1 
vt 0 1 
vt 0 1 
vt 0 1 
vt 0 1 
vt 0 1 
vt 0 1 
vt 0 1 
vt 0 1 
vt 0 1 
vt 0 1 
vt 0 1 
vt 0 1 
vt 0 1 
vt 0 1 
vt 0 1 
vt 0 1 
vt 0 1 
vt 0 1 
vt 0 1 
vt 0 1 
vt 0 1 
vt 0 1 
vt 0 1 
vt 0 1 
vt 0 1 
vt 0 1 
vt 0 1 
vt 0 1 
vt 0 1 
vt 0 1 
vt 0 1 
vt 0 1 
vt 0 1 
vt 0 1 
vt 0 1 
vt 0 1 
vt 0 1 
vt 0 1 
vt 0 1 
vt 0 1 
vt 0 1 
vt 0 1 
vt 0 1 
vt 0 1 
vt 0 1 
vt 0 1 
vt 0 1 
vt 0 1 
vt 0 1 
vt 0 1 
vt 0 1 
vt 0 1 
vt 0 1 
vt 0 1 
vt 0 1 
vt 0 1 
vt 0 1 
vt 0 1 
vt 0 1 
vt 0 1 
vt 0 1 
vt 0 1 
vt 0 1 
vt 0 1 
vt 0 1 
vt 0 1 
vt 0 1 
vt 0 1 
vt 0 1 
vt 0 1 
vt 0 1 
vt 0 1 
vt 0 1 
vt 0 1 
vt 0 1 
vt 0 1 
vt 0 1 
vt 0 1 
vt 0 1 
vt 0 1 
vt 0 1 
vt 0 1 
vt 0 1 
vt 0 1 
vt 0 1 
vt 0 1 
vt 0 1 
vt 0 1 
vt 0 1 
vt 0 1 
vt 0 1 
vt 0 1 
vt 0 1 
vt 0 1 
vt 0 1 
vt 0 1 
vt 0 1 
vt 0 1 
vt 0 1 
vt 0 1 
vt 0 1 
vt 0 1 
vt 0 1 
vt 0 1 
vt 0 1 
vt 0 1 
vt 0 1 
vt 0 1 
vt 0 1 
vt 0 1 
vt 0 1 
vt 0 1 
vt 0 1 
vt 0 1 
vt 0 1 
vt 0 1 
vt 0 1 
vt 0 1 
vt 0 1 
vt 0 1 
vt 0 1 
vt 0 1 
vt 0 1 
vt 0 1 
vt 0 1 
vt 0 1 
vt 0 1 
vt 0 1 
vt 0 1 
vt 0 1 
vt 0 1 
vt 0 1 
vt 0 1 
vt 0 1 
vt 0 1 
vt 0 1 
vt 0 1 
vt 0 1 
vt 0 1 
vt 0 1 
vt 0 1 
vt 0 1 
vt 0 1 
vt 0 1 
vt 0 1 
vt 0 1 
vt 0 1 
vt 0 1 
vt 0 1 
vt 0 1 
vt 0 1 
vt 0 1 
vt 0 1 
vt 0 1 
vt 0 1 
vt 0 1 
vt 0 1 
vt 0 1 
vt 0 1 
vt 0 1 
vt 0 1 
vt 0 1 
vt 0 1 
vt 0 1 
vt 0 1 
vt 0 1 
vt 0 1 
vt 0 1 
vt 0 1 
vt 0 1 
vt 0 1 
vt 0 1 
vt 0 1 
vt 0 1 
vt 0 1 
vt 0 1 
vt 0 1 
vt 0 1 
vt 0 1 
vt 0 1 
vt 0 1 
vt 0 1 
vt 0 1 
vt 0 1 
vt 0 1 
vt 0 1 
vt 0 1 
vt 0 1 
vt 0 1 
vt 0 1 
vt 0 1 
vt 0 1 
vt 0 1 
vt 0 1 
vt 0 1 
vt 0 1 
vt 0 1 
vt 0 1 
vt 0 1 
vt 0 1 
vt 0 1 
vt 0 1 
vt 0 1 
vt 0 1 
vt 0 1 
vt 0 1 
vt 0 1 
vt 0 1 
vt 0 1 
vt 0 1 
# 64 
vn 0.067382 0.960327 -0.270615 
vn -0.0645764 0.959464 -0.274332 
vn 0.144818 0.986587 -0.0753271 
vn -0.14232 0.986728 -0.0781792 
vn 0.143936 0.986577 0.077126 
vn -0.140411 0.986742 0.0813877 
vn -0.0618644 0.958721 0.277538 
vn 0.0661061 0.960027 0.271988 
vn -0.124617 0.862558 -0.490372 
vn -0.356119 0.915285 -0.188235 
vn -0.351748 0.915261 0.196393 
vn -0.119331 0.860149 0.495886 
vn 0.127561 0.864241 0.486638 
vn 0.359834 0.914397 0.185469 
vn 0.361824 0.914515 -0.180955 
vn 0.130065 0.865244 -0.484186 
vn -0.0543625 -0.948818 -0.31111 
vn 0.0760375 -0.909653 -0.40835 
vn 0.148819 -0.983581 -0.102088 
vn -0.183805 -0.974066 -0.131955 
vn 0.147807 -0.983543 0.103907 
vn -0.181262 -0.973997 0.135918 
vn -0.0515148 -0.947942 0.314248 
vn 0.0741311 -0.908952 0.410257 
vn -0.458854 -0.84243 -0.282426 
vn -0.145919 -0.741403 -0.655003 
vn -0.453279 -0.841972 0.292613 
vn -0.138531 -0.737421 0.661075 
vn 0.14973 -0.743993 0.651195 
vn 0.463224 -0.841243 0.278808 
vn 0.465865 -0.841667 -0.27307 
vn 0.153409 -0.745811 -0.648253 
vn -0.181155 0.7568 -0.628042 
vn -0.504232 0.827194 -0.247991 
vn -0.498377 0.827396 0.258912 
vn -0.173083 0.753074 0.634761 
vn 0.185459 0.759145 0.623942 
vn 0.508889 0.825503 0.244085 
vn 0.511561 0.825597 -0.238107 
vn 0.189355 0.760776 -0.620777 
vn 0.82068 0.433849 -0.371832 
vn 0.306621 0.388108 -0.869112 
vn 0.816419 0.434395 0.380475 
vn 0.298757 0.386593 0.872519 
vn -0.275806 0.381356 0.882326 
vn -0.8032 0.438011 0.403753 
vn -0.811927 0.436534 -0.387574 
vn -0.29131 0.384604 -0.87591 
vn 0.837798 -0.388121 -0.384002 
vn 0.312839 -0.336884 -0.888055 
vn 0.833525 -0.388417 0.392898 
vn 0.304668 -0.335312 0.891484 
vn -0.281004 -0.330089 0.901154 
vn -0.820363 -0.391391 0.416914 
vn -0.829094 -0.390395 -0.400243 
vn -0.297037 -0.333402 -0.894769 
vn 0.60113 -0.743268 -0.293592 
vn 0.218936 -0.655366 -0.722885 
vn 0.59802 -0.742989 0.300565 
vn 0.213891 -0.653137 0.726404 
vn -0.198522 -0.645542 0.737472 
vn -0.586386 -0.74498 0.318052 
vn -0.593067 -0.745016 -0.305322 
vn -0.208705 -0.650359 -0.730394 
f 3/2/3 1/1/1 2/3/2 4/4/4 
f 5/6/5 3/5/3 4/7/4 6/8/6 
f 5/9/5 6/10/6 7/11/7 8/12/8 
f 4/13/4 2/14/2 9/16/9 10/15/10 
f 6/17/6 4/18/4 10/20/10 11/19/11 
f 7/21/7 6/22/6 11/24/11 12/23/12 
f 8/25/8 7/26/7 12/28/12 13/27/13 
f 5/29/5 8/30/8 13/32/13 14/31/14 
f 3/33/3 5/34/5 14/36/14 15/35/15 
f 1/1/1 3/37/3 15/39/15 16/38/16 
f 2/40/2 1/1/1 16/42/16 9/41/9 
f 17/43/17 18/44/18 19/45/19 
f 17/46/17 19/47/19 20/48/20 
f 20/49/20 19/50/19 21/51/21 22/52/22 
f 22/53/22 21/54/21 23/55/23 
f 23/56/23 21/57/21 24/58/24 
f 17/61/17 20/60/20 25/59/25 26/88/26 
f 20/62/20 22/63/22 27/65/27 25/64/25 
f 27/66/27 22/67/22 23/69/23 28/68/28 
f 24/70/24 29/71/29 28/73/28 23/72/23 
f 24/74/24 21/75/21 30/77/30 29/76/29 
f 21/78/21 19/79/19 31/81/31 30/80/30 
f 19/82/19 18/83/18 32/85/32 31/84/31 
f 33/89/33 34/90/34 10/92/10 9/91/9 
f 34/93/34 35/94/35 11/96/11 10/95/10 
f 35/97/35 36/98/36 12/100/12 11/99/11 
f 36/101/36 37/102/37 13/104/13 12/103/12 
f 37/105/37 38/106/38 14/108/14 13/107/13 
f 38/109/38 39/110/39 15/112/15 14/111/14 
f 39/113/39 40/114/40 16/116/16 15/115/15 
f 40/117/40 33/118/33 9/120/9 16/119/16 
f 40/121/40 39/122/39 41/124/41 42/123/42 
f 39/125/39 38/126/38 43/128/43 41/127/41 
f 38/129/38 37/130/37 44/132/44 43/131/43 
f 37/133/37 36/134/36 45/136/45 44/135/44 
f 36/137/36 35/138/35 46/140/46 45/139/45 
f 35/141/35 34/142/34 47/144/47 46/143/46 
f 34/145/34 33/146/33 48/148/48 47/147/47 
f 48/149/48 33/150/33 40/152/40 42/151/42 
f 49/153/49 50/154/50 42/156/42 41/155/41 
f 49/157/49 41/158/41 43/160/43 51/159/51 
f 51/161/51 43/162/43 44/164/44 52/163/52 
f 45/165/45 53/166/53 52/168/52 44/167/44 
f 45/169/45 46/170/46 54/172/54 53/171/53 
f 54/173/54 46/174/46 47/176/47 55/175/55 
f 55/177/55 47/178/47 48/180/48 56/179/56 
f 50/181/50 56/182/56 48/184/48 42/183/42 
f 50/185/50 49/186/49 57/188/57 58/187/58 
f 49/189/49 51/190/51 59/192/59 57/191/57 
f 51/193/51 52/194/52 60/196/60 59/195/59 
f 52/197/52 53/198/53 61/200/61 60/199/60 
f 53/201/53 54/202/54 62/204/62 61/203/61 
f 54/205/54 55/206/55 63/208/63 62/207/62 
f 56/209/56 64/210/64 63/212/63 55/211/55 
f 56/213/56 50/214/50 58/216/58 64/215/64 
f 58/217/58 57/218/57 31/220/31 32/219/32 
f 57/221/57 59/222/59 30/224/30 31/223/31 
f 59/225/59 60/226/60 29/228/29 30/227/30 
f 60/229/60 61/230/61 28/232/28 29/231/29 
f 61/233/61 62/234/62 27/236/27 28/235/28 
f 25/237/25 27/238/27 62/240/62 63/239/63 
f 26/241/26 25/242/25 63/244/63 64/243/64 
f 64/245/64 58/246/58 32/248/32 26/247/26 
f 17/61/17 26/88/26 32/87/32 18/86/18 
